<?xml version="1.0" encoding="UTF-8"?>
<svg width="439px" height="439px" viewBox="0 0 439 439" version="1.1" xmlns="http://www.w3.org/2000/svg" xmlns:xlink="http://www.w3.org/1999/xlink">
    <!-- Generator: Sketch 42 (36781) - http://www.bohemiancoding.com/sketch -->
    <title>Artboard</title>
    <desc>Created with Sketch.</desc>
    <defs></defs>
    <g id="Page-1" stroke="none" stroke-width="1" fill="none" fill-rule="evenodd">
        <g id="Artboard" fill-rule="nonzero" fill="#C2BCF1">
            <path d="M433.109,23.694 C429.495,20.082 425.211,18.27 420.261,18.27 C415.313,18.27 411.035,20.082 407.414,23.694 L370.301,60.529 C349.936,41.303 326.617,26.406 300.353,15.845 C274.091,5.283 247.056,0.003 219.266,0.003 C166.922,0.003 121.244,15.846 82.224,47.539 C43.203,79.228 17.509,120.574 5.137,171.587 L5.137,173.584 C5.137,176.058 6.04,178.201 7.849,180.007 C9.658,181.816 11.798,182.719 14.272,182.719 L71.086,182.719 C75.275,182.719 78.128,180.529 79.652,176.154 C87.645,157.122 92.687,145.988 94.783,142.751 C108.105,121.053 125.806,104.017 147.886,91.645 C169.968,79.274 193.759,73.086 219.262,73.086 C257.523,73.086 290.735,86.125 318.907,112.201 L279.501,151.598 C275.894,155.215 274.08,159.5 274.08,164.449 C274.08,169.397 275.893,173.68 279.501,177.296 C283.122,180.913 287.406,182.72 292.355,182.72 L420.261,182.72 C425.21,182.72 429.494,180.913 433.109,177.296 C436.722,173.68 438.529,169.398 438.529,164.449 L438.529,36.542 C438.529,31.593 436.733,27.312 433.109,23.694 Z" id="Shape"></path>
            <path d="M422.253,255.813 L367.437,255.813 C363.249,255.813 360.394,258 358.875,262.379 C350.885,281.413 345.837,292.542 343.746,295.779 C330.42,317.472 312.718,334.514 290.644,346.885 C268.561,359.26 244.77,365.441 219.266,365.441 C200.805,365.441 183.007,362.018 165.879,355.168 C148.749,348.31 133.425,338.601 119.913,326.038 L159.028,286.926 C162.643,283.313 164.452,279.025 164.452,274.079 C164.452,269.131 162.643,264.843 159.028,261.232 C155.411,257.612 151.13,255.801 146.181,255.801 L18.274,255.801 C13.322,255.801 9.039,257.612 5.423,261.232 C1.807,264.844 0,269.132 0,274.08 L0,401.987 C0,406.932 1.807,411.219 5.424,414.834 C9.043,418.444 13.326,420.262 18.275,420.262 C23.223,420.262 27.504,418.445 31.122,414.834 L67.951,378.001 C88.318,397.411 111.493,412.356 137.474,422.824 C163.455,433.296 190.34,438.525 218.127,438.525 C270.282,438.525 315.77,422.68 354.598,390.991 C393.426,359.303 418.931,317.949 431.118,266.941 C431.309,266.561 431.399,265.894 431.399,264.946 C431.399,262.468 430.492,260.334 428.684,258.519 C426.874,256.72 424.731,255.813 422.253,255.813 Z" id="Shape"></path>
        </g>
    </g>
</svg>