<svg width="13px" height="11px" viewBox="0 0 13 11" version="1.1" xmlns="http://www.w3.org/2000/svg" xmlns:xlink="http://www.w3.org/1999/xlink">
    <g id="Page-1" stroke="none" stroke-width="1" fill="none" fill-rule="evenodd">
        <g id="change_game-copy" transform="translate(-365.000000, -141.000000)" fill="#D3CFFD">
            <g id="Group-2-Copy" transform="translate(346.000000, 129.000000)">
                <g id="simple-icon-black-twitter">
                    <g id="Group-15">
                        <path d="M31.7571284,13.2436798 L31.7571284,13.2563412 C31.7411681,13.2628762 31.7346202,13.2751292 31.7247985,13.2886075 C31.3926719,13.7768834 30.979559,14.2050672 30.5032186,14.5547526 C30.4692356,14.5793427 30.4508579,14.6200672 30.4549284,14.6617623 C30.4700625,15.0788179 30.4493886,15.4964011 30.3931332,15.9099362 C30.2780743,16.7143414 30.0388326,17.4960985 29.6839212,18.2273902 C29.2279103,19.1760005 28.5750703,20.0170354 27.7686804,20.6947393 C27.0077635,21.3388872 26.1156133,21.8102149 25.1540493,22.0760628 C24.3534596,22.2998883 23.5222057,22.394749 22.6916554,22.3570653 C22.3392867,22.3414717 21.9884167,22.3016228 21.6415468,22.2378026 C20.8206468,22.0853081 20.0317956,21.794284 19.3088818,21.3772324 C19.2114828,21.3225022 19.114493,21.2612371 19.017094,21.2028311 C19.0198315,21.1987095 19.0221615,21.1943323 19.0240511,21.1897612 C20.3969119,21.3481973 21.7771405,20.9614965 22.8668099,20.1131295 C22.7792326,20.1061861 22.7031141,20.103327 22.6302694,20.0931162 C22.5560859,20.0874437 22.4823837,20.0766626 22.4096893,20.0608499 C21.450432,19.8415209 20.7997412,19.2717556 20.4498415,18.3572721 C20.4273333,18.2951902 20.4334719,18.2923311 20.4907654,18.3017251 C20.8394295,18.3614828 21.1966589,18.3493901 21.5404647,18.2661914 C21.5535603,18.2629239 21.5695207,18.2661914 21.5760685,18.2441359 L21.5376,18.2339251 C20.9868675,18.1095595 20.4926168,17.8073623 20.1314531,17.3741718 C19.7426716,16.9262476 19.5245848,16.3558549 19.5155477,15.7633085 C19.5122738,15.6599747 19.5122738,15.6599747 19.603125,15.7053109 C19.8892648,15.8445056 20.1970318,15.9341403 20.5132736,15.9703845 C20.565247,15.9769194 20.6139465,15.9769194 20.6659199,15.9797784 C20.6659199,15.960582 20.6560982,15.9569061 20.6466856,15.9507796 C20.5031035,15.8457406 20.3686679,15.7287851 20.2448125,15.6011602 C20.0879094,15.4377317 19.9538321,15.25391 19.8462132,15.0546757 C19.6183388,14.6348185 19.51073,14.1604347 19.5351912,13.6835631 C19.5554874,13.282903 19.66614,12.8919832 19.8588996,12.5399482 C19.8814078,12.4991048 19.8945035,12.4991048 19.9235595,12.5334132 C20.2278393,12.9039559 20.5686765,13.2430274 20.9409288,13.5455124 C21.7096662,14.178698 22.5991611,14.6495955 23.5555599,14.9296949 C24.0904115,15.0877774 24.6417594,15.1837136 25.1986564,15.2155986 C25.2805043,15.2192745 25.2764119,15.2221336 25.2633163,15.1449396 C25.1990158,14.8250348 25.1945758,14.4960176 25.2502206,14.1745006 C25.4392566,13.099332 26.277817,12.2546052 27.3533023,12.055954 C27.443335,12.0400251 27.5313215,12.0302227 27.6221727,12.0151106 L28.0142241,12.0151106 C28.0476431,12.0257399 28.0827599,12.0300343 28.1177617,12.0277721 C28.7173727,12.0921305 29.2756487,12.3634238 29.6961984,12.7948109 C29.723933,12.8253095 29.7664295,12.8377654 29.8062838,12.8270772 C30.3449317,12.7138307 30.8622077,12.5161502 31.3388857,12.241383 C31.3561668,12.2274441 31.3781105,12.2205819 31.4002716,12.2221866 C31.2068301,12.8111638 30.8122856,13.313637 30.2855032,13.6419028 C30.6483371,13.6020896 31.0053659,13.5206828 31.3495259,13.3992931 C31.4845749,13.350281 31.6212609,13.2955509 31.7571284,13.2436798 Z" id="Shape"></path>
                    </g>
                </g>
            </g>
        </g>
    </g>
</svg>