<svg 
	width="100" 
	height="40" 
	viewBox="40 0 100 40" 
	fill="none" 
	xmlns="http://www.w3.org/2000/svg"
	xmlns:xlink="http://www.w3.org/1999/xlink"
	preserveAspectRatio="none"
>
	<g>
		<path 
			mask="url(#border-cut)" 
			fill-rule="evenodd" 
			clip-rule="evenodd"
			d="M4.41244 25.5265C2.32889 22.2682 2.31098 18.1006 4.36646 14.8245L10.728 4.68529C12.5572 1.76989 15.757 0 19.1988 0H200.242C203.559 0 206.66 1.64461 208.52 4.39043L215.389 14.5269C217.702 17.9411 217.682 22.4255 215.339 25.8191L208.527 35.6827C206.66 38.3861 203.584 40 200.298 40H19.1428C15.7316 40 12.5557 38.2612 10.718 35.3873L4.41244 25.5265Z"
			fill="#FF7536" />
		<defs>
			<mask id="border-cut">
				<path 
				fill="transparent" 
				stroke="white" 
				stroke-width="3"
				d="M4.83368 25.2572C2.85431 22.1618 2.83729 18.2025 4.79 15.0903L11.1515 4.95103C12.8893 2.18139 15.9291 0.5 19.1988 0.5H200.242C203.393 0.5 206.339 2.06238 208.106 4.67091L214.975 14.8073C217.173 18.0509 217.154 22.311 214.927 25.535L208.115 35.3986C206.342 37.9668 203.42 39.5 200.298 39.5H19.1428C15.9022 39.5 12.8851 37.8481 11.1392 35.1179L4.83368 25.2572Z" />
			</mask>
		</defs>
	</g>
</svg>