<?xml version="1.0" encoding="UTF-8"?>
<svg width="220px" height="108px" viewBox="0 0 220 108" version="1.1" xmlns="http://www.w3.org/2000/svg" xmlns:xlink="http://www.w3.org/1999/xlink">
    <!-- Generator: Sketch 48.2 (47327) - http://www.bohemiancoding.com/sketch -->
    <title>Group 6</title>
    <desc>Created with Sketch.</desc>
    <defs>
        <linearGradient x1="50%" y1="1.68407207%" x2="50%" y2="100%" id="linearGradient-1">
            <stop stop-color="#4E4B6F" offset="2.734375%"></stop>
            <stop stop-color="#555273" stop-opacity="0.357733243" offset="97.1580038%"></stop>
        </linearGradient>
        <polygon id="path-2" points="0.387359927 13.9751931 0.829845664 11.2374717 1.8533686 9.7770143 2.67727566 9.17053359 3.84860225 9.17053359 18.8033711 11.5728634 20.6755507 11.2374717 23.1683206 11.5728634 25.189229 13.0409538 26.5358845 13.9751931 43.5241458 16.8082298 43.9475393 16.4866269 46.682748 16.4866269 49.1976023 16.9676639 51.4808745 9.4503475 50.7669924 7.70943396 51.779912 4.46504491 53.3828427 1.87114646 55.8889339 0.921618345 57.8489176 0.146136786 59.9148524 0.523349653 61.0847947 2.26448719 61.8566923 4.78155428 62.5616144 7.70943396 63.2766165 10.0683584 82.9241628 13.4525675 85.4386636 13.0409538 97.5137024 14.9340743 99.7528713 14.9340743 102.152852 14.2311779 102.76738 14.9340743 104.533431 15.247835 105.370469 14.5422705 106.537759 14.7756999 107.218654 16.076745 108.410756 16.076745 108.735447 15.247835 109.944232 15.4193779 111.119508 16.4866269 112.01173 15.6241456 113.186008 16.076745 114.039444 16.9676639 114.924537 16.2893555 116.368891 16.2893555 116.920309 17.1664629 117.754067 17.6130733 118.538487 16.8082298 120.047437 17.1664629 120.276874 18.5072922 121.180504 17.4592123 122.862281 18.1077385 123.234371 19.7199568 125.039717 20.133637 127.132227 20.7941408 128.264656 20.7941408 128.752097 23.2206032 139.771311 24.7445959 141.301071 24.7445959 142.177191 23.5065763 144.293865 23.2206032 145.866194 22.7474446 148.364649 23.2206032 165.985288 26.3134154 167.014524 24.7445959 169.120421 24.7445959 170.909519 24.7445959 172.105371 26.3134154 172.105371 27.764704 172.640998 29.7089773 173.293318 31.1226161 174.605032 32.3750468 177.95712 34.8986291 178.495867 36.0801282 180.24877 36.4179371 180.24877 38.4179572 180.24877 39.8590534 180.701609 40.6846467 184.171015 40.9642127 186.651617 40.6846467 189.023812 41.3266609 211.112213 44.9958978 212.217222 44.1483428 213.644742 44.1483428 216.179298 45.5113601 217.142219 46.7654614 216.863571 73.1345766 215.927003 75.369844 214.389278 76.8349586 212.773782 76.8349586 210.786754 75.9155301 208.150101 73.1345766 205.462583 73.4954187 202.809896 73.4954187 195.75947 61.8034351 192.342527 61.8034351 184.78917 52.6926334 184.464265 51.9886412 180.957389 51.5623758 177.95712 51.3600241 175.579036 51.5623758 174.605032 52.3647795 174.605032 58.6767514 175.276614 60.5909836 177.648072 65.248021 179.271125 69.247139 179.985253 73.1345766 180.957389 76.1429454 180.957389 78.2936231 179.607456 80.2325503 176.956243 81.1245195 173.293318 81.7024565 166.678142 81.7024565 166.678142 75.078664 165.586032 72.2783599 164.624217 67.709598 163.491195 63.2396161 162.145685 59.0731617 161.471548 58.1266423 155.722401 58.1266423 152.519974 57.6143129 150.653104 56.7153407 149.455949 56.7153407 150.653104 63.2396161 147.481203 63.2396161 146.245335 57.6143129 146.245335 56.3303598 145.476401 67.1289153 144.293865 79.2678704 141.718975 91.9198764 139.771311 101.657756 138.419928 105.775423 133.942814 105.775423 121.455459 95.9451669 121.455459 94.4980348 125.310454 81.1245195 127.132227 75.078664 128.752097 63.9242544 128.752097 58.1266423 128.752097 47.4921398 127.132227 46.5115481 125.890708 46.7654614 122.862281 46.7654614 120.047437 44.9958978 118.538487 42.4359398 113.186008 41.5811349 87.5017916 38.1611365 86.0114325 39.3150258 84.2007649 40.4763142 81.8692311 40.0884392 81.4126212 39.3150258 79.6831504 39.3150258 77.3712829 36.0801282 76.3840709 33.0733925 77.3712829 30.0260813 75.9971695 29.5094987 73.0446851 28.6301596 66.6646085 27.764704 66.0160083 29.7089773 65.7696921 32.3750468 63.0364584 32.3750468 61.0847947 31.7405589 59.9148524 29.7089773 59.9148524 26.977407 42.7984176 24.2743544 42.0561588 23.5065763 25.189229 21.3010354 22.4340059 22.480043 20.6755507 23.2206032 17.7810635 22.7474446 17.2858997 21.3010354 17.7810635 20.133637 1.8533686 18.9560661 0.387359927 18.5072922 0.163905037 15.6241456"></polygon>
    </defs>
    <g id="skin_upgrade_before" stroke="none" stroke-width="1" fill="none" fill-rule="evenodd" transform="translate(-184.000000, -700.000000)">
        <g id="◆-YOUR-SKIN" transform="translate(130.000000, 608.000000)">
            <g id="Group-4" transform="translate(51.000000, 34.000000)">
                <g id="Group-6" transform="translate(4.000000, 59.000000)">
                    <mask id="mask-3" fill="white">
                        <use xlink:href="#path-2"></use>
                    </mask>
                    <g id="Mask" opacity="0.589673913">
                        <use fill-opacity="0.5" fill="#25233A" fill-rule="evenodd" xlink:href="#path-2"></use>
                        <path stroke="url(#linearGradient-1)" stroke-width="1" d="M125.840103,46.2654614 L125.890708,46.2654614 L125.790523,46.2756013 L125.840103,46.2654614 Z M179.291482,79.8113167 L179.448018,79.7586519 L179.197114,79.9468593 L179.291482,79.8113167 Z M180.457389,78.136709 L180.547047,78.007932 L180.457389,78.2936231 L180.457389,78.136709 Z M211.083676,75.5019881 L211.149596,75.5715157 L210.996724,75.4617539 L211.083676,75.5019881 Z M215.506304,75.0800637 L215.5821,75.0078472 L215.465847,75.1766215 L215.506304,75.0800637 Z M18.7988103,11.0657205 L20.5873818,10.7453068 L20.7422228,10.7419368 L23.3600772,11.0941581 L23.4621889,11.1683372 L25.4742339,12.6301348 L26.7287475,13.5004509 L43.3935448,16.2795453 L43.7791748,15.9866269 L43.9475393,15.9866269 L46.7766841,15.9955302 L48.8498705,16.3920857 L50.9507239,9.47535473 L50.2360137,7.73242179 L51.3026321,4.31603501 L51.3545729,4.20220151 L53.0468149,1.46377744 L53.2056882,1.40358226 L55.7049804,0.456687011 L57.7979916,-0.371427807 L60.2122005,0.0693753708 L61.4998068,1.98562344 L61.562822,2.11789273 L62.3428018,4.6645176 L63.0401167,7.56439748 L63.6656043,9.62799697 L82.9262707,12.9455676 L85.3578907,12.5475212 L85.5161074,12.5469877 L97.5137024,14.4340743 L99.6811585,14.4340743 L102.318963,13.6615251 L103.028028,14.4725518 L104.390272,14.7145714 L105.232358,14.0047521 L106.870011,14.3322428 L107.521315,15.576745 L108.06962,15.576745 L108.414134,14.6972267 L110.166614,14.945927 L111.108824,15.8015332 L111.893715,15.0428059 L113.365827,15.6101993 L113.547075,15.7308685 L114.090738,16.2984089 L114.754978,15.7893555 L116.645152,15.7893555 L117.273129,16.7882391 L117.658558,16.994698 L118.378232,16.256287 L120.484525,16.7563327 L120.59081,17.3774601 L121.031796,16.8659797 L123.289793,17.7367078 L123.651236,19.3027943 L125.190222,19.6568267 L127.209267,20.2941408 L128.674202,20.2941408 L129.172395,22.7741254 L139.771311,24.2445959 L141.042372,24.2445959 L141.894698,23.0401998 L142.110246,23.0110781 L144.149784,22.7418126 L145.839147,22.2334351 L145.959231,22.2561767 L148.451089,22.7281317 L165.747693,25.7640684 L166.744554,24.2445959 L171.157086,24.2445959 L172.605371,26.1445787 L172.605371,27.6979794 L173.094993,29.4994821 L173.70765,30.8271673 L174.905757,31.9755918 L178.359345,34.5755872 L178.843779,35.6379758 L180.74877,36.0050941 L180.74877,39.7309319 L181.010817,40.2086821 L184.115019,40.4673581 L186.595621,40.1877921 L186.782238,40.2020101 L189.105748,40.83342 L210.980089,44.4670982 L212.047551,43.6483428 L213.770659,43.6483428 L216.416113,45.0709982 L216.57588,45.2068569 L217.644017,46.5979894 L217.363543,73.1398599 L217.324727,73.3277991 L216.388159,75.5630665 L216.271907,75.7318407 L214.589339,77.3349586 L212.773782,77.3349586 L212.563812,77.2887349 L210.576785,76.3693063 L210.423913,76.2595444 L207.96285,73.6637913 L205.462583,73.9954187 L202.527531,73.9954187 L195.477105,62.3034351 L192.107568,62.3034351 L184.404251,53.0117528 L184.335187,52.902155 L184.1271,52.451281 L180.923743,52.0612425 L177.999512,51.8582238 L175.776689,52.0473643 L175.105032,52.6006888 L175.105032,58.5921748 L175.722172,60.3640963 L178.11137,65.0599906 L179.734422,69.0591086 L179.762896,69.1567999 L180.461029,72.9808325 L181.433165,75.9892013 L181.457389,76.1429454 L181.457389,78.4505372 L179.92343,80.6537839 L179.766893,80.7064487 L177.034169,81.6184097 L173.293318,82.2024565 L166.178142,82.2024565 L166.178142,75.1721454 L165.096757,72.3813622 L164.139544,67.8324496 L163.01539,63.3932718 L161.693616,59.3003153 L161.21361,58.6263645 L155.643415,58.6203641 L152.440987,58.1080347 L152.303045,58.0648035 L150.53899,57.2153407 L150.056043,57.2153407 L151.253198,63.7396161 L147.079128,63.7396161 L146.429495,60.7826812 L145.974045,67.1773942 L144.783822,79.3675845 L142.209265,92.0179387 L140.24638,101.81367 L138.782071,106.275423 L133.769623,106.275423 L120.955459,96.1878977 L120.955459,94.4980348 L120.975021,94.3595457 L124.831715,80.9802633 L126.637418,75.0068066 L128.252097,63.9242544 L128.252097,47.7739402 L127.040698,47.0406173 L125.990894,47.2553215 L125.890708,47.2654614 L122.718172,47.2654614 L119.678421,45.354508 L118.227243,42.8925619 L113.120012,42.0767604 L87.6424843,38.6842837 L86.281365,39.7359015 L84.3086338,41.001131 L81.5571967,40.5434007 L81.1271767,39.8150258 L79.4259208,39.8150258 L76.9644891,36.3708494 L76.8962335,36.2361028 L75.858151,33.0744315 L76.7486256,30.325728 L75.8544497,29.9886971 L72.9774758,29.1256219 L67.0078391,28.3158424 L66.5085779,29.8124503 L66.2256268,32.8750468 L63.0364584,32.8750468 L62.8818719,32.8505497 L60.7474229,32.1566381 L59.4148524,29.8426558 L59.4148524,27.4046427 L42.5552021,24.7421418 L41.8181068,23.9797049 L25.2601072,21.81456 L22.6280696,22.9408459 L20.7369502,23.7372766 L17.4049709,23.1926017 L16.7508775,21.2819472 L17.0482658,20.5808242 L1.81650308,19.4547052 L1.70701274,19.4341665 L-0.0848151307,18.8856529 L-0.334599984,15.6627816 L-0.331566282,15.5570027 L-0.108111392,13.9080502 L-0.106234596,13.8954157 L0.354553849,11.0444528 L1.44391113,9.49005685 L1.55696193,9.37434436 L2.51309235,8.67053359 L2.67727566,8.67053359 L3.92790541,8.67686264 L18.7988103,11.0657205 Z M82.9262707,12.9455676 L83.0090359,12.9598235 L82.8433898,12.9591349 L82.9262707,12.9455676 Z M99.6811585,14.4340743 L99.7528713,14.4340743 L99.6123366,14.4542305 L99.6811585,14.4340743 Z"></path>
                    </g>
                    <g opacity="0.00999999978" mask="url(#mask-3)">
                        <g transform="translate(-41.000000, -24.000000)">
                            <rect id="Rectangle-2" fill="#000000" transform="translate(30.000000, 82.000000) rotate(18.000000) translate(-30.000000, -82.000000) " x="27" y="-3" width="6" height="170"></rect>
                            <rect id="Rectangle-2-Copy" fill="#FFFFFF" transform="translate(37.000000, 82.000000) rotate(18.000000) translate(-37.000000, -82.000000) " x="34" y="-3" width="6" height="170"></rect>
                            <rect id="Rectangle-2-Copy-3" fill="#000000" transform="translate(43.000000, 82.000000) rotate(18.000000) translate(-43.000000, -82.000000) " x="40" y="-3" width="6" height="170"></rect>
                            <rect id="Rectangle-2-Copy-2" fill="#FFFFFF" transform="translate(49.000000, 82.000000) rotate(18.000000) translate(-49.000000, -82.000000) " x="46" y="-3" width="6" height="170"></rect>
                            <rect id="Rectangle-2-Copy-5" fill="#000000" transform="translate(55.000000, 82.000000) rotate(18.000000) translate(-55.000000, -82.000000) " x="52" y="-3" width="6" height="170"></rect>
                            <rect id="Rectangle-2-Copy-4" fill="#FFFFFF" transform="translate(61.000000, 82.000000) rotate(18.000000) translate(-61.000000, -82.000000) " x="58" y="-3" width="6" height="170"></rect>
                            <rect id="Rectangle-2-Copy-7" fill="#000000" transform="translate(67.000000, 82.000000) rotate(18.000000) translate(-67.000000, -82.000000) " x="64" y="-3" width="6" height="170"></rect>
                            <rect id="Rectangle-2-Copy-6" fill="#FFFFFF" transform="translate(74.000000, 82.000000) rotate(18.000000) translate(-74.000000, -82.000000) " x="71" y="-3" width="6" height="170"></rect>
                            <rect id="Rectangle-2-Copy-9" fill="#000000" transform="translate(80.000000, 82.000000) rotate(18.000000) translate(-80.000000, -82.000000) " x="77" y="-3" width="6" height="170"></rect>
                            <rect id="Rectangle-2-Copy-8" fill="#FFFFFF" transform="translate(86.000000, 82.000000) rotate(18.000000) translate(-86.000000, -82.000000) " x="83" y="-3" width="6" height="170"></rect>
                            <rect id="Rectangle-2-Copy-11" fill="#000000" transform="translate(93.000000, 82.000000) rotate(18.000000) translate(-93.000000, -82.000000) " x="90" y="-3" width="6" height="170"></rect>
                            <rect id="Rectangle-2-Copy-10" fill="#FFFFFF" transform="translate(99.000000, 82.000000) rotate(18.000000) translate(-99.000000, -82.000000) " x="96" y="-3" width="6" height="170"></rect>
                            <rect id="Rectangle-2-Copy-23" fill="#000000" transform="translate(105.000000, 82.000000) rotate(18.000000) translate(-105.000000, -82.000000) " x="102" y="-3" width="6" height="170"></rect>
                            <rect id="Rectangle-2-Copy-22" fill="#FFFFFF" transform="translate(112.000000, 82.000000) rotate(18.000000) translate(-112.000000, -82.000000) " x="109" y="-3" width="6" height="170"></rect>
                            <rect id="Rectangle-2-Copy-21" fill="#000000" transform="translate(118.000000, 82.000000) rotate(18.000000) translate(-118.000000, -82.000000) " x="115" y="-3" width="6" height="170"></rect>
                            <rect id="Rectangle-2-Copy-20" fill="#FFFFFF" transform="translate(124.000000, 82.000000) rotate(18.000000) translate(-124.000000, -82.000000) " x="121" y="-3" width="6" height="170"></rect>
                            <rect id="Rectangle-2-Copy-19" fill="#000000" transform="translate(130.000000, 82.000000) rotate(18.000000) translate(-130.000000, -82.000000) " x="127" y="-3" width="6" height="170"></rect>
                            <rect id="Rectangle-2-Copy-18" fill="#FFFFFF" transform="translate(136.000000, 82.000000) rotate(18.000000) translate(-136.000000, -82.000000) " x="133" y="-3" width="6" height="170"></rect>
                            <rect id="Rectangle-2-Copy-17" fill="#000000" transform="translate(142.000000, 82.000000) rotate(18.000000) translate(-142.000000, -82.000000) " x="139" y="-3" width="6" height="170"></rect>
                            <rect id="Rectangle-2-Copy-16" fill="#FFFFFF" transform="translate(149.000000, 82.000000) rotate(18.000000) translate(-149.000000, -82.000000) " x="146" y="-3" width="6" height="170"></rect>
                            <rect id="Rectangle-2-Copy-15" fill="#000000" transform="translate(155.000000, 82.000000) rotate(18.000000) translate(-155.000000, -82.000000) " x="152" y="-3" width="6" height="170"></rect>
                            <rect id="Rectangle-2-Copy-14" fill="#FFFFFF" transform="translate(161.000000, 82.000000) rotate(18.000000) translate(-161.000000, -82.000000) " x="158" y="-3" width="6" height="170"></rect>
                            <rect id="Rectangle-2-Copy-13" fill="#000000" transform="translate(168.000000, 82.000000) rotate(18.000000) translate(-168.000000, -82.000000) " x="165" y="-3" width="6" height="170"></rect>
                            <rect id="Rectangle-2-Copy-12" fill="#FFFFFF" transform="translate(174.000000, 82.000000) rotate(18.000000) translate(-174.000000, -82.000000) " x="171" y="-3" width="6" height="170"></rect>
                            <rect id="Rectangle-2-Copy-35" fill="#000000" transform="translate(181.000000, 82.000000) rotate(18.000000) translate(-181.000000, -82.000000) " x="178" y="-3" width="6" height="170"></rect>
                            <rect id="Rectangle-2-Copy-34" fill="#FFFFFF" transform="translate(188.000000, 82.000000) rotate(18.000000) translate(-188.000000, -82.000000) " x="185" y="-3" width="6" height="170"></rect>
                            <rect id="Rectangle-2-Copy-33" fill="#000000" transform="translate(194.000000, 82.000000) rotate(18.000000) translate(-194.000000, -82.000000) " x="191" y="-3" width="6" height="170"></rect>
                            <rect id="Rectangle-2-Copy-32" fill="#FFFFFF" transform="translate(200.000000, 82.000000) rotate(18.000000) translate(-200.000000, -82.000000) " x="197" y="-3" width="6" height="170"></rect>
                            <rect id="Rectangle-2-Copy-31" fill="#000000" transform="translate(206.000000, 82.000000) rotate(18.000000) translate(-206.000000, -82.000000) " x="203" y="-3" width="6" height="170"></rect>
                            <rect id="Rectangle-2-Copy-30" fill="#FFFFFF" transform="translate(212.000000, 82.000000) rotate(18.000000) translate(-212.000000, -82.000000) " x="209" y="-3" width="6" height="170"></rect>
                            <rect id="Rectangle-2-Copy-29" fill="#000000" transform="translate(218.000000, 82.000000) rotate(18.000000) translate(-218.000000, -82.000000) " x="215" y="-3" width="6" height="170"></rect>
                            <rect id="Rectangle-2-Copy-28" fill="#FFFFFF" transform="translate(225.000000, 82.000000) rotate(18.000000) translate(-225.000000, -82.000000) " x="222" y="-3" width="6" height="170"></rect>
                            <rect id="Rectangle-2-Copy-27" fill="#000000" transform="translate(231.000000, 82.000000) rotate(18.000000) translate(-231.000000, -82.000000) " x="228" y="-3" width="6" height="170"></rect>
                            <rect id="Rectangle-2-Copy-26" fill="#FFFFFF" transform="translate(237.000000, 82.000000) rotate(18.000000) translate(-237.000000, -82.000000) " x="234" y="-3" width="6" height="170"></rect>
                            <rect id="Rectangle-2-Copy-25" fill="#000000" transform="translate(244.000000, 82.000000) rotate(18.000000) translate(-244.000000, -82.000000) " x="241" y="-3" width="6" height="170"></rect>
                            <rect id="Rectangle-2-Copy-24" fill="#FFFFFF" transform="translate(250.000000, 82.000000) rotate(18.000000) translate(-250.000000, -82.000000) " x="247" y="-3" width="6" height="170"></rect>
                        </g>
                    </g>
                </g>
            </g>
        </g>
    </g>
</svg>