<svg width="1000" height="400" xmlns="http://www.w3.org/2000/svg"><g fill="none" fill-rule="evenodd"><g fill="#FFF"><path d="M215.038 261.084h-71.97c-3.657 0-6.69-3.097-6.69-6.831 0-3.735 3.033-6.832 6.69-6.832h71.97c7.67 0 14.893-3.097 20.423-8.745 5.44-5.556 8.383-12.934 8.383-20.677-.09-15.758-12.843-28.784-28.45-28.966l-44.59-.365c-3.657 0-6.69-3.097-6.6-6.923 0-3.734 3.032-6.74 6.688-6.74h.09l44.59.364c22.832.273 41.56 19.402 41.65 42.539.088 11.386-4.282 22.135-12.219 30.333-8.116 8.289-18.728 12.843-29.965 12.843z"/><path d="M200.394 220.31c-.09 0-.09 0 0 0l-44.714-.365c-22.847-.273-41.59-19.423-41.679-42.584-.089-11.398 4.284-22.158 12.227-30.365 8.033-8.207 18.653-12.766 29.899-12.766h72.023c3.66 0 6.694 3.1 6.694 6.84 0 3.738-3.034 6.838-6.694 6.838h-72.023c-7.676 0-14.905 3.1-20.438 8.754-5.444 5.562-8.39 12.948-8.39 20.7.09 15.774 12.852 28.814 28.47 28.996l44.625.365c3.66 0 6.694 3.1 6.604 6.93 0 3.648-2.945 6.657-6.604 6.657z"/><path d="M185.458 236.167a6.472 6.472 0 0 1-4.652-1.953c-2.545-2.574-2.545-6.835 0-9.41l15.973-16.155c2.545-2.574 6.757-2.574 9.302 0s2.545 6.835 0 9.41l-15.972 16.155c-1.316 1.242-2.984 1.953-4.651 1.953zM169.793 186.331a6.472 6.472 0 0 1-4.652-1.953c-2.545-2.574-2.545-6.835 0-9.41l15.973-16.155c2.545-2.574 6.757-2.574 9.302 0 2.545 2.575 2.545 6.835 0 9.41l-15.972 16.155a6.472 6.472 0 0 1-4.651 1.953z"/></g><path d="M339.406 241.51c22.311 0 34.496-11.167 34.496-25.77 0-32.985-50.114-21.99-50.114-36.765 0-5.84 6.007-10.136 15.446-10.136 10.298 0 19.565 4.295 24.543 9.964l7.551-12.713c-7.551-6.7-18.192-11.682-32.265-11.682-20.938 0-32.609 11.682-32.609 25.254 0 31.783 50.114 20.1 50.114 36.422 0 6.528-5.492 11.166-16.304 11.166-10.812 0-22.311-5.669-28.146-11.682l-8.238 13.057c8.581 8.418 21.453 12.885 35.526 12.885zm130.263-2.062l-35.183-45.355 34.496-37.623h-22.311l-36.556 40.029v-71.64h-18.02v114.59h18.02v-22.335l11.499-11.854 25.4 34.188h22.655zm21.624-93.114a11.139 11.139 0 0 0 11.156-11.167A11.139 11.139 0 0 0 491.293 124c-6.007 0-11.155 4.982-11.155 11.167s5.148 11.167 11.155 11.167zm9.096 93.114V156.47h-18.02v82.978h18.02zm97.311 0v-58.411c0-17.008-8.924-26.629-26.773-26.629-13.044 0-23.684 6.872-29.176 13.4V156.47h-18.02v82.978h18.02v-57.896c4.119-5.67 12.013-11.167 21.281-11.167 10.126 0 16.648 4.295 16.648 17.18v51.883h18.02z" fill="#FFF"/><path d="M665.01 243.514c21.493 0 36.797-16.466 36.797-44.025 0-27.559-15.304-43.852-36.798-43.852-10.833 0-20.462 5.2-26.652 13.52v-11.44h-18.055v115.61h18.055V229.82c6.706 9.014 16.163 13.693 26.652 13.693zm-5.331-16.12c-8.426 0-17.367-5.199-21.322-11.265v-33.106c3.955-6.24 12.896-11.266 21.322-11.266 14.272 0 23.385 11.613 23.385 27.732 0 16.293-9.113 27.906-23.385 27.906zm128.792 14.04V185.97c0-22.533-16.163-30.333-34.562-30.333-13.24 0-25.277 4.333-34.907 13.52l7.394 12.653c7.222-7.107 15.304-10.573 24.59-10.573 11.52 0 19.43 5.893 19.43 15.6v12.479c-6.018-7.107-15.648-10.747-26.824-10.747-13.585 0-28.888 7.974-28.888 27.213 0 18.546 15.303 27.732 28.888 27.732 11.005 0 20.634-3.986 26.824-11.093v9.013h18.055zm-37.83-10.4c-10.145 0-17.71-5.892-17.71-14.905 0-9.187 7.565-15.08 17.71-15.08 7.91 0 15.648 2.947 19.775 8.666v12.653c-4.127 5.72-11.865 8.667-19.774 8.667zm57.605 43.16c2.579.693 7.566 1.213 10.145 1.213 12.896-.174 22.87-4.68 28.544-18.893L887 157.717h-19.43l-24.246 62.745-24.245-62.745H799.82l34.047 84.757-4.127 9.533c-2.408 5.547-6.19 7.28-11.865 7.28-2.063 0-4.987-.52-6.878-1.386l-2.751 16.292z" fill="#957BEE"/></g></svg>