<?xml version="1.0" encoding="UTF-8"?>
<svg width="271px" height="37px" viewBox="0 0 271 37" version="1.1" xmlns="http://www.w3.org/2000/svg" xmlns:xlink="http://www.w3.org/1999/xlink">
    <!-- Generator: Sketch 52.4 (67378) - http://www.bohemiancoding.com/sketch -->
    <title>icon_logo-text</title>
    <desc>Created with Sketch.</desc>
    <defs>
        <polygon id="path-1" points="0 0 58.878 0 58.878 34 0 34"></polygon>
    </defs>
    <g id="Page-1" stroke="none" stroke-width="1" fill="none" fill-rule="evenodd">
        <g id="sprite" transform="translate(0.000000, -59.000000)">
            <g id="icon_logo-text" transform="translate(0.000000, 59.000000)">
                <g id="Group">
                    <g id="Clipped">
                        <mask id="mask-2" fill="white">
                            <use xlink:href="#path-1"></use>
                        </mask>
                        <g id="ga"></g>
                        <path d="M52.227,28.065 C51.818,28.34 50.373,29.139 48.914,27.848 L33.541,14.253 L42.736,6.122 C43.4091382,5.51754668 44.3424197,5.29476336 45.216,5.53 C46.0942597,5.75222641 46.8005377,6.40356752 47.093,7.261 L53.272,24.908 C53.916,26.748 52.635,27.789 52.227,28.065 M58.395,23.106 L52.215,5.46 C51.3219049,2.89867954 49.2114809,0.950624755 46.587,0.265 C43.9644397,-0.42219487 41.171923,0.244797974 39.143,2.043 L29.439,10.625 L19.735,2.043 C17.7058522,0.244462655 14.9128706,-0.42255161 12.29,0.265 C9.66590022,0.950916863 7.55590223,2.8989246 6.663,5.46 L0.483,23.106 C-0.164,24.954 -0.161,26.862 0.49,28.624 C1.09752961,30.2349908 2.19146771,31.6169177 3.62,32.578 C5.052,33.544 6.768,34.048 8.451,33.996 C10.326,33.939 12.091,33.223 13.555,31.928 L24.407,22.331 L22.472,16.786 L9.963,27.848 C8.504,29.138 7.06,28.34 6.651,28.065 C6.243,27.789 4.962,26.748 5.606,24.908 L11.785,7.26 C12.089,6.392 12.773,5.76 13.661,5.529 C14.5348838,5.29302071 15.4688163,5.51586958 16.142,6.121 L25.337,14.252 L29.439,17.88 L45.322,31.927 C46.787,33.222 48.552,33.937 50.426,33.995 C50.506,33.997 50.584,33.999 50.663,33.999 C52.27,33.999 53.893,33.499 55.259,32.577 C56.6871605,31.6157637 57.7807361,30.2338533 58.388,28.623 C59.039,26.861 59.041,24.953 58.395,23.105" id="Shape" fill="#4BE061" fill-rule="nonzero" mask="url(#mask-2)"></path>
                    </g>
                    <path d="M89.735,16.645 L98.1,16.645 L98.1,26.305 C97.19,27.168 95.988,27.927 94.495,28.58 C93.002,29.233 91.088,29.56 88.755,29.56 C86.842,29.56 85.133,29.245 83.628,28.615 C82.122,27.985 80.845,27.128 79.795,26.043 C78.7361827,24.9440584 77.9142189,23.6394673 77.38,22.21 C76.82,20.74 76.54,19.153 76.54,17.45 C76.54,15.747 76.832,14.148 77.415,12.655 C77.9740243,11.2000533 78.8120723,9.86841643 79.882,8.735 C80.9585164,7.60459247 82.2497092,6.70028159 83.68,6.075 C85.15,5.422 86.772,5.095 88.545,5.095 C89.688,5.095 90.738,5.217 91.695,5.463 C92.6015107,5.68846 93.4772634,6.02324737 94.303,6.46 C95.084,6.88 95.778,7.376 96.385,7.947 C96.9802555,8.5057608 97.5194845,9.12135273 97.995,9.785 L94.88,12.55 C94.133,11.477 93.264,10.613 92.272,9.96 C91.281,9.307 90.038,8.98 88.545,8.98 C87.402,8.98 86.375,9.207 85.465,9.662 C84.5726493,10.1029952 83.7803023,10.7224418 83.137,11.482 C82.4809582,12.2661975 81.9818909,13.1692717 81.667,14.142 C81.3258966,15.175223 81.1546724,16.2569407 81.16,17.345 C81.16,18.605 81.364,19.737 81.772,20.74 C82.1558011,21.7056332 82.7267505,22.5858469 83.452,23.33 C84.1575247,24.0493482 85.0038162,24.6154716 85.938,24.993 C86.8881097,25.3787878 87.9045647,25.5748087 88.93,25.57 C91.077,25.57 92.733,25.057 93.9,24.03 L93.9,20.39 L89.735,20.39 L89.735,16.645 Z M112.03,27.46 C111.587,27.997 110.91,28.475 110,28.895 C109.09,29.315 108.075,29.525 106.955,29.525 C106.2718,29.5240596 105.592828,29.417812 104.942,29.21 C104.2818,29.0023949 103.66503,28.6760487 103.122,28.247 C102.560419,27.7989685 102.10602,27.2311403 101.792,26.585 C101.454,25.908 101.285,25.115 101.285,24.205 C101.285,23.272 101.46,22.438 101.81,21.703 C102.16,20.967 102.65,20.349 103.28,19.848 C103.91,19.346 104.668,18.967 105.555,18.71 C106.442,18.453 107.422,18.325 108.495,18.325 C109.242201,18.3258123 109.989207,18.3491562 110.735,18.395 L112.03,18.465 L112.03,18.08 C112.03,17.263 111.703,16.622 111.05,16.155 C110.397,15.688 109.545,15.455 108.495,15.455 C107.328,15.455 106.395,15.607 105.695,15.91 C104.995,16.213 104.377,16.54 103.84,16.89 L101.95,14.09 C102.277,13.857 102.65,13.618 103.07,13.373 C103.49,13.127 103.98,12.906 104.54,12.708 C105.1,12.509 105.747,12.346 106.482,12.218 C107.218,12.089 108.075,12.025 109.055,12.025 C110.105,12.025 111.055,12.171 111.907,12.463 C112.759,12.754 113.488,13.163 114.095,13.688 C114.696484,14.2059814 115.174777,14.8516773 115.495,15.578 C115.822,16.313 115.985,17.112 115.985,17.975 L115.985,29 L112.135,29 L112.03,27.46 Z M112.03,21.58 L110.805,21.51 C110.152627,21.4648828 109.49893,21.4415365 108.845,21.44 C107.515,21.44 106.582,21.702 106.045,22.227 C105.508,22.753 105.24,23.353 105.24,24.03 C105.24,24.73 105.49,25.278 105.993,25.675 C106.494,26.072 107.235,26.27 108.215,26.27 C108.705,26.27 109.177,26.188 109.632,26.025 C110.068773,25.871891 110.477018,25.6471538 110.84,25.36 C111.19,25.08 111.476,24.753 111.698,24.38 C111.919,24.007 112.03,23.61 112.03,23.19 L112.03,21.58 Z M119.975,12.585 L123.93,12.585 L124.035,14.44 C124.245,14.207 124.485,13.956 124.753,13.688 C125.021,13.419 125.347,13.18 125.733,12.97 C126.118,12.76 126.561,12.585 127.063,12.445 C127.564,12.305 128.142,12.235 128.795,12.235 C130.965,12.235 132.61,13.028 133.73,14.615 C134.57,13.752 135.427,13.139 136.303,12.777 C137.178,12.416 138.198,12.235 139.365,12.235 C141.442,12.235 143.035,12.847 144.143,14.073 C145.251,15.298 145.805,16.948 145.805,19.025 L145.805,29 L141.675,29 L141.675,19.06 C141.675,18.01 141.413,17.2 140.887,16.628 C140.362,16.056 139.645,15.77 138.735,15.77 C138.175,15.77 137.662,15.88 137.195,16.102 C136.728,16.324 136.325,16.633 135.988,17.03 C135.644083,17.4367089 135.382559,17.9064316 135.218,18.413 C135.039288,18.9607576 134.950472,19.533844 134.955,20.11 L134.955,29 L130.825,29 L130.825,19.06 C130.825,18.01 130.563,17.2 130.038,16.628 C129.512,16.056 128.795,15.77 127.885,15.77 C127.325,15.77 126.812,15.88 126.345,16.102 C125.878,16.324 125.475,16.633 125.138,17.03 C124.794083,17.4367089 124.532559,17.9064316 124.368,18.413 C124.189288,18.9607576 124.100472,19.533844 124.105,20.11 L124.105,29 L119.975,29 L119.975,12.585 Z M165.23,26.62 L164.653,27.198 C164.337,27.513 163.883,27.845 163.288,28.195 C162.692,28.545 161.934,28.86 161.012,29.14 C160.091,29.42 158.988,29.56 157.705,29.56 C156.398,29.56 155.208,29.338 154.135,28.895 C153.101968,28.4790111 152.16631,27.8535365 151.387,27.058 C150.629,26.276 150.046,25.337 149.637,24.24 C149.229,23.143 149.025,21.93 149.025,20.6 C149.025,19.387 149.229,18.26 149.637,17.222 C150.025894,16.2145858 150.608553,15.2932036 151.352,14.51 C152.096221,13.7335844 152.988897,13.1146625 153.977,12.69 C154.993,12.247 156.118,12.025 157.355,12.025 C158.848,12.025 160.115,12.299 161.153,12.847 C162.191,13.396 163.025,14.113 163.655,15 C164.295036,15.9086821 164.758115,16.9298308 165.02,18.01 C165.3,19.13 165.44,20.273 165.44,21.44 L165.44,22.035 L153.19,22.035 C153.19,22.642 153.324,23.19 153.593,23.68 C153.861,24.17 154.211,24.59 154.643,24.94 C155.074,25.29 155.564,25.558 156.113,25.745 C156.661,25.932 157.203,26.025 157.74,26.025 C158.533,26.025 159.227,25.949 159.822,25.798 C160.345104,25.6714776 160.855048,25.4956926 161.345,25.273 C161.765,25.074 162.109,24.864 162.377,24.643 C162.646,24.421 162.85,24.24 162.99,24.1 L165.23,26.62 Z M161.205,19.06 C161.205,18.64 161.123,18.22 160.96,17.8 C160.795511,17.3786063 160.551781,16.9926439 160.242,16.663 C159.899639,16.3053933 159.489272,16.0198023 159.035,15.823 C158.545,15.601 157.985,15.49 157.355,15.49 C156.678,15.49 156.078,15.6 155.553,15.822 C155.0671,16.0182902 154.621883,16.3031204 154.24,16.662 C153.900477,16.9856003 153.627076,17.3720978 153.435,17.8 C153.248,18.22 153.155,18.64 153.155,19.06 L161.205,19.06 Z M169.885,5.655 L173.98,5.655 L180.455,16.68 L186.825,5.655 L190.92,5.655 L192.04,29 L187.735,29 L186.965,12.83 L181.365,22.35 L179.3,22.35 L173.665,13.075 L172.895,29 L168.765,29 L169.885,5.655 Z M195.47,20.775 C195.47,19.585 195.686,18.459 196.118,17.398 C196.53254,16.3622695 197.14457,15.4170532 197.92,14.615 C198.712454,13.8063041 199.658233,13.1637726 200.702,12.725 C201.788,12.258 202.983,12.025 204.29,12.025 C205.597,12.025 206.792,12.258 207.878,12.725 C208.921767,13.1637726 209.867546,13.8063041 210.66,14.615 C211.43,15.408 212.03,16.335 212.463,17.398 C212.896623,18.4707631 213.116409,19.6179312 213.11,20.775 C213.116222,21.9324713 212.896093,23.0799941 212.462,24.153 C212.044796,25.1924028 211.433206,26.1427099 210.66,26.953 C209.871461,27.7706037 208.924969,28.4194035 207.878,28.86 C206.792,29.327 205.597,29.56 204.29,29.56 C202.983,29.56 201.788,29.327 200.702,28.86 C199.655031,28.4194035 198.708539,27.7706037 197.92,26.953 C197.146794,26.1427099 196.535204,25.1924028 196.118,24.153 C195.683907,23.0799941 195.463778,21.9324713 195.47,20.775 Z M204.29,25.99 C205.083,25.99 205.772,25.833 206.355,25.517 C206.924366,25.2142877 207.420365,24.7903161 207.808,24.275 C208.193,23.762 208.478,23.202 208.665,22.595 C208.848994,22.0057888 208.943382,21.392269 208.945,20.775 C208.945,20.192 208.852,19.591 208.665,18.973 C208.483996,18.3654949 208.193565,17.7961545 207.808,17.293 C207.416549,16.7854776 206.921152,16.3674757 206.355,16.067 C205.772,15.752 205.083,15.595 204.29,15.595 C203.497,15.595 202.808,15.752 202.225,16.067 C201.659209,16.3675933 201.164162,16.7855876 200.773,17.293 C200.387081,17.7960785 200.096308,18.3654235 199.915,18.973 C199.733684,19.556658 199.639338,20.1638427 199.635,20.775 C199.635,21.382 199.728,21.988 199.915,22.595 C200.102,23.202 200.387,23.762 200.773,24.275 C201.158,24.788 201.642,25.202 202.225,25.517 C202.808,25.833 203.497,25.99 204.29,25.99 Z M216.4,12.585 L220.355,12.585 L220.46,14.44 C220.67,14.207 220.92,13.962 221.212,13.705 C221.534155,13.4275766 221.886347,13.1870798 222.262,12.988 C222.671,12.766 223.132,12.585 223.645,12.445 C224.21646,12.2978142 224.804941,12.2271965 225.395,12.235 C227.448,12.235 229.012,12.847 230.085,14.073 C231.158,15.298 231.695,16.948 231.695,19.025 L231.695,29 L227.565,29 L227.565,19.06 C227.565,18.01 227.279,17.2 226.708,16.628 C226.136,16.056 225.395,15.77 224.485,15.77 C223.925,15.77 223.4,15.88 222.91,16.102 C222.42,16.324 222,16.633 221.65,17.03 C221.3,17.427 221.026,17.887 220.827,18.413 C220.625692,18.9559168 220.525047,19.5309846 220.53,20.11 L220.53,29 L216.4,29 L216.4,12.585 Z M251.12,26.62 L250.542,27.198 C250.227,27.513 249.772,27.845 249.178,28.195 C248.582,28.545 247.824,28.86 246.903,29.14 C245.981,29.42 244.878,29.56 243.595,29.56 C242.288,29.56 241.098,29.338 240.025,28.895 C238.991968,28.4790111 238.05631,27.8535365 237.277,27.058 C236.519,26.276 235.936,25.337 235.527,24.24 C235.119,23.143 234.915,21.93 234.915,20.6 C234.915,19.387 235.119,18.26 235.528,17.222 C235.916894,16.2145858 236.499553,15.2932036 237.243,14.51 C237.987221,13.7335844 238.879897,13.1146625 239.868,12.69 C240.883,12.247 242.008,12.025 243.245,12.025 C244.738,12.025 246.005,12.299 247.042,12.847 C248.081,13.396 248.915,14.113 249.545,15 C250.185036,15.9086821 250.648115,16.9298308 250.91,18.01 C251.19,19.13 251.33,20.273 251.33,21.44 L251.33,22.035 L239.08,22.035 C239.08,22.642 239.214,23.19 239.482,23.68 C239.751,24.17 240.101,24.59 240.532,24.94 C240.964,25.29 241.454,25.558 242.002,25.745 C242.551,25.932 243.093,26.025 243.63,26.025 C244.423,26.025 245.117,25.949 245.713,25.798 C246.235763,25.6714173 246.745369,25.4956332 247.235,25.273 C247.655,25.074 247.999,24.864 248.267,24.643 C248.536,24.421 248.74,24.24 248.88,24.1 L251.12,26.62 Z M247.095,19.06 C247.095,18.64 247.013,18.22 246.85,17.8 C246.685511,17.3786063 246.441781,16.9926439 246.132,16.663 C245.789639,16.3053933 245.379272,16.0198023 244.925,15.823 C244.435,15.601 243.875,15.49 243.245,15.49 C242.568,15.49 241.968,15.6 241.442,15.822 C240.956454,16.0183994 240.511585,16.3032243 240.13,16.662 C239.790477,16.9856003 239.517076,17.3720978 239.325,17.8 C239.138,18.22 239.045,18.64 239.045,19.06 L247.095,19.06 Z M255.18,32.255 C255.413,32.442 255.67,32.622 255.95,32.797 C256.23,32.973 256.58,33.06 257,33.06 C257.56,33.06 258.02,32.827 258.382,32.36 C258.744,31.893 259.123,31.17 259.52,30.19 L260.045,28.86 L252.66,12.585 L257.42,12.585 L262.11,23.82 L266.24,12.585 L270.755,12.585 L263.895,29 C263.568,29.817 263.242,30.657 262.915,31.52 C262.588,32.383 262.185,33.182 261.707,33.917 C261.247862,34.6328047 260.6464,35.2465208 259.94,35.72 C259.24,36.187 258.353,36.42 257.28,36.42 C256.347,36.42 255.57,36.31 254.953,36.087 C254.358595,35.8793117 253.806943,35.5651952 253.325,35.16 L255.18,32.255 Z" id="Shape" fill="#FFFFFF" fill-rule="nonzero"></path>
                </g>
            </g>
        </g>
    </g>
</svg>