<?xml version="1.0" encoding="UTF-8"?>
<svg width="30px" height="16px" viewBox="0 0 30 16" version="1.1" xmlns="http://www.w3.org/2000/svg" xmlns:xlink="http://www.w3.org/1999/xlink">
    <!-- Generator: Sketch 48.2 (47327) - http://www.bohemiancoding.com/sketch -->
    <title>game mode</title>
    <desc>Created with Sketch.</desc>
    <defs></defs>
    <g id="c_skin" stroke="none" stroke-width="1" fill="none" fill-rule="evenodd" transform="translate(-1790.000000, -262.000000)">
        <g id="◆-YOUR-SKIN-Copy-2" transform="translate(1444.000000, 243.000000)" fill="#79769A" fill-rule="nonzero">
            <g id="game-mode" transform="translate(344.000000, 8.500000)">
                <path d="M15.7111631,19.8010486 C16.2434028,21.0429914 16.9753226,22.7275822 17.2550239,23.2617525 C17.7150239,24.139291 17.2709469,24.2799448 17.2709469,24.2799448 C17.2709469,24.2799448 15.9546392,25.3901371 15.6255623,25.6661371 C15.29737,25.944791 15.0240239,25.5670602 15.0240239,25.5670602 C15.0240239,25.5670602 13.2149854,21.0855987 12.9947162,20.1594063 C12.7744469,19.233214 12.4604085,19.7515987 12.4604085,19.7515987 C12.4604085,19.7515987 9.32621616,26.1049063 8.80340847,26.8745217 C8.28060078,27.6459063 7.55344693,26.6170987 7.55344693,26.6170987 L5.4931777,24.178214 C5.03140847,23.6297525 5.63383155,23.1193294 5.63383155,23.1193294 C5.63383155,23.1193294 7.68702385,21.4332525 8.39825462,20.831714 C9.11037001,20.2284063 9.47837001,19.497714 9.43237001,18.8324833 C9.38725462,18.1654833 9.74729309,17.814291 9.74729309,17.814291 C9.74729309,17.814291 11.0361777,16.7253294 11.2821008,16.5183294 C11.5289085,16.3095602 11.2785623,15.9592525 11.1423315,15.4629833 C11.0052162,14.9684833 11.1794854,14.7287525 11.1794854,14.7287525 C11.1794854,14.7287525 15.1806008,11.3477525 15.83787,10.7930987 C16.4951392,10.2384448 17.3824085,11.1770217 17.3824085,11.1770217 C17.3824085,11.1770217 19.8170463,9.15818722 20.6094319,8.49988725 C20.6533394,7.88013605 20.7413762,6.66195371 20.8226777,5.68444481 C20.9244085,4.49286788 21.7577162,4.79186788 22.0443315,5.13156019 C22.2673014,5.39444435 23.3056276,6.62472781 23.7557727,7.15815637 L26.7708315,4.61317558 L27.6979085,5.71009865 L22.81837,9.83063711 C22.81837,9.83063711 22.9572546,9.99517558 23.2341392,10.3233679 C23.5119085,10.6524448 23.0510239,10.9965602 23.0510239,10.9965602 C23.0510239,10.9965602 20.3644469,13.2629448 19.9805239,13.586714 C19.5966008,13.9122525 20.0106008,14.2369063 20.0106008,14.2369063 C20.0106008,14.2369063 22.5910239,16.1246756 23.7330623,16.4749833 C24.8751008,16.8270602 25.7809469,16.6235987 26.31437,16.6421756 C26.8495623,16.6598679 26.7982546,17.2684833 26.7982546,17.2684833 C26.7982546,17.2684833 26.84337,18.5458679 26.7655239,19.4534833 C26.6903315,20.3655217 26.1560239,20.3460602 26.1560239,20.3460602 C26.1560239,20.3460602 23.9736777,20.2629063 21.4808315,19.6445602 C19.6212597,19.1847796 18.248182,18.1563567 17.4360613,17.4781581 C17.4407562,17.9292077 17.3131186,18.464834 16.8162546,18.883791 C16.3259311,19.298774 15.9615951,19.5984561 15.7111631,19.8010486 Z M15.3160526,18.8749986 C15.4809591,18.7358664 15.7376507,18.5193025 15.9599469,18.331791 C16.2780003,18.0635063 16.587167,17.5012758 16.4523763,16.7526651 C16.1507255,16.6776462 16.03337,16.9199448 16.03337,16.9199448 C16.03337,16.9199448 15.5724854,17.2640602 15.2159854,17.5639448 C14.8586008,17.864714 15.1054085,18.377791 15.1054085,18.377791 C15.1054085,18.377791 15.1857027,18.5681584 15.3160526,18.8749986 Z M21.9753561,8.6609881 L22.7142016,8.03733605 C22.5526343,7.84705608 22.3311823,7.58639607 22.1841008,7.41386788 C21.9284469,7.10956019 21.7046392,7.34132942 21.8337931,7.81371404 C21.8955199,8.04199671 21.9454032,8.40663919 21.9753561,8.6609881 Z" id="Combined-Shape" transform="translate(16.508449, 15.887261) rotate(45.000000) translate(-16.508449, -15.887261) "></path>
            </g>
        </g>
    </g>
</svg>