<?xml version="1.0" encoding="UTF-8"?>
<svg width="23px" height="16px" viewBox="0 0 23 16" version="1.1" xmlns="http://www.w3.org/2000/svg" xmlns:xlink="http://www.w3.org/1999/xlink">
    <!-- Generator: Sketch 42 (36781) - http://www.bohemiancoding.com/sketch -->
    <title>g-icon-14</title>
    <desc>Created with Sketch.</desc>
    <defs>
        <linearGradient x1="49.284941%" y1="0%" x2="49.284941%" y2="94.7936022%" id="linearGradient-1">
            <stop stop-color="#FF2D01" stop-opacity="0.0773607337" offset="0%"></stop>
            <stop stop-color="#FF3201" stop-opacity="0.409703351" offset="100%"></stop>
        </linearGradient>
        <linearGradient x1="50%" y1="100%" x2="50%" y2="-2.48949813e-15%" id="linearGradient-2">
            <stop stop-color="#FFA300" stop-opacity="0.698001585" offset="0%"></stop>
            <stop stop-color="#EF3152" stop-opacity="0.263983243" offset="100%"></stop>
        </linearGradient>
        <path d="M14.9364319,16 L23,16 L23,15.2618059 C23,14.5248248 22.5812052,13.851159 21.9184996,13.5214825 L21.9184996,13.5214825 L19.5886638,12.3628841 C19.2876779,12.2132075 19.0974275,11.907062 19.0974275,11.5722911 L19.0974275,10.6630728 C19.1627956,10.5890836 19.2379201,10.4937466 19.3179228,10.381186 C19.6352508,9.93530997 19.8755029,9.44455526 20.0420939,8.92954178 C20.3406407,8.83808625 20.5608922,8.56347709 20.5608922,8.23719677 L20.5608922,7.26684636 C20.5608922,7.05336927 20.4655231,6.86245283 20.3169814,6.72902965 L20.3169814,5.32614555 C20.3169814,5.32614555 20.6065035,3.14285714 17.6339628,3.14285714 C14.6611782,3.14285714 14.9509442,5.32614555 14.9509442,5.32614555 L14.9509442,6.72902965 C14.8024025,6.86245283 14.7070334,7.05336927 14.7070334,7.26684636 L14.7070334,8.23719677 C14.7070334,8.4928841 14.84216,8.7177628 15.044362,8.84778976 C15.2880289,9.903531 15.9265873,10.6630728 15.9265873,10.6630728 L15.9265873,11.5497305 C15.9265873,11.8730997 15.7490203,12.1707547 15.4634007,12.3257682 L15.2766527,12.4270782 L16.2590711,12.9156226 C17.0837714,13.3258868 17.6049383,14.1642264 17.6049383,15.0813585 L17.6049383,16 L14.9364319,16 Z" id="path-3"></path>
        <mask id="mask-4" maskContentUnits="userSpaceOnUse" maskUnits="objectBoundingBox" x="0" y="0" width="8.29296661" height="12.8571429" fill="white">
            <use xlink:href="#path-3"></use>
        </mask>
        <path d="M8.2296722,16 L0.19442924,16 L0.19442924,15.161876 C0.19442924,14.4024151 0.611484157,13.703504 1.28194612,13.3399461 L3.60293608,12.0808194 C3.90759691,11.9154717 4.09700176,11.597973 4.09700176,11.2530458 L4.09700176,10.3072776 C4.09700176,10.3072776 3.41587277,9.49709973 3.15596144,8.37097574 C2.94027927,8.23228032 2.79614426,7.9924097 2.79614426,7.71967655 L2.79614426,6.68463612 C2.79614426,6.45692722 2.89787131,6.25328302 3.05631576,6.11096496 L3.05631576,4.61455526 C3.05631576,4.61455526 2.74723201,2.28571429 5.91820227,2.28571429 C7.05034974,2.28571429 7.73887429,2.58262971 8.1562367,2.96442475 L8.1562367,4.46279245 C7.97138484,4.62883019 7.85270328,4.86641509 7.85270328,5.13207547 L7.85270328,6.33962264 C7.85270328,6.65781132 8.02086079,6.93766038 8.27249,7.0994717 C8.38055807,7.56770079 8.55104332,7.98911213 8.72572991,8.33760492 C8.6543724,8.39043172 8.57373023,8.4315712 8.48687551,8.4581779 C8.30917837,9.00752561 8.05290944,9.5309973 7.71442632,10.0065984 C7.62909007,10.1266631 7.54895725,10.2283558 7.47923128,10.3072776 L7.47923128,11.2771105 C7.47923128,11.5458781 7.59419359,11.7973484 7.78795398,11.9733766 L6.08613878,12.8966038 C5.30393316,13.3207547 4.81736909,14.1361509 4.81736909,15.0221887 L4.81736909,16 L8.2296722,16 Z" id="path-5"></path>
        <mask id="mask-6" maskContentUnits="userSpaceOnUse" maskUnits="objectBoundingBox" x="0" y="0" width="8.53130067" height="13.7142857" fill="white">
            <use xlink:href="#path-5"></use>
        </mask>
        <path d="M13.6436705,11.4738113 C13.2691103,11.2875472 13.0323542,10.906566 13.0323542,10.4899623 L13.0323542,9.35849057 C13.1137011,9.26641509 13.2071894,9.14777358 13.3067484,9.00769811 C13.7016454,8.45283019 14.0006258,7.84211321 14.2079391,7.20120755 C14.579464,7.08739623 14.8535547,6.74566038 14.8535547,6.33962264 L14.8535547,5.13207547 C14.8535547,4.86641509 14.7348731,4.62883019 14.5500213,4.46279245 L14.5500213,2.71698113 C14.5500213,2.71698113 14.9103155,0 11.2111537,0 C7.51168838,0 7.87228608,2.71698113 7.87228608,2.71698113 L7.87228608,4.46279245 C7.68743423,4.62883019 7.56875266,4.86641509 7.56875266,5.13207547 L7.56875266,6.33962264 C7.56875266,6.65781132 7.73691017,6.93766038 7.98853938,7.0994717 C8.29176926,8.41328302 9.08641975,9.35849057 9.08641975,9.35849057 L9.08641975,10.4618868 C9.08641975,10.8643019 8.86544742,11.234717 8.51000979,11.4276226 L5.80218817,12.8966038 C5.01998255,13.3207547 4.53341848,14.1361509 4.53341848,15.0221887 L4.53341848,16 L17.8888889,16 L17.8888889,15.0813585 C17.8888889,14.1642264 17.367722,13.3258868 16.5430217,12.9156226 L13.6436705,11.4738113 Z" id="path-7"></path>
        <mask id="mask-8" maskContentUnits="userSpaceOnUse" maskUnits="objectBoundingBox" x="0" y="0" width="13.3554704" height="16" fill="white">
            <use xlink:href="#path-7"></use>
        </mask>
    </defs>
    <g id="Page-1" stroke="none" stroke-width="1" fill="none" fill-rule="evenodd">
        <g id="artboard_3-" transform="translate(-548.000000, -65.000000)" stroke="url(#linearGradient-2)" fill="url(#linearGradient-1)">
            <g id="g-icon-14" transform="translate(548.000000, 65.000000)">
                <use id="Combined-Shape" mask="url(#mask-4)" opacity="0.699584618" xlink:href="#path-3"></use>
                <use id="Combined-Shape" mask="url(#mask-6)" opacity="0.699584618" xlink:href="#path-5"></use>
                <use id="Path-Copy-4" mask="url(#mask-8)" stroke-width="1.2" xlink:href="#path-7"></use>
            </g>
        </g>
    </g>
</svg>