<svg width="34" height="34" viewBox="0 0 34 34" fill="none" xmlns="http://www.w3.org/2000/svg">
<path d="M32.6736 31.8278L32.6736 31.8278L32.6699 31.8271C32.5774 31.8083 32.4812 31.8083 32.3887 31.8271L32.3887 31.8271L32.385 31.8278C32.3448 31.8366 32.3014 31.8489 32.256 31.8678C32.2098 31.8865 32.1681 31.9099 32.132 31.934C32.0942 31.9592 32.057 31.989 32.0231 32.023C31.9892 32.0569 31.9593 32.0941 31.9341 32.1319C31.91 32.168 31.8866 32.2096 31.8679 32.2559C31.849 32.3013 31.8368 32.3447 31.828 32.3849L31.8279 32.3849L31.8265 32.3922C31.818 32.4377 31.8138 32.4839 31.8138 32.5296C31.8138 32.7176 31.8892 32.9015 32.0231 33.0354C32.057 33.0693 32.0942 33.0992 32.132 33.1244C32.1681 33.1484 32.2098 33.1719 32.2561 33.1906C32.3015 33.2095 32.3448 33.2217 32.385 33.2305L32.385 33.2306L32.3924 33.232C32.4325 33.2395 32.4793 33.2456 32.5298 33.2456C32.5795 33.2456 32.6264 33.2395 32.6662 33.232L32.6663 33.2321L32.6736 33.2305C32.7114 33.2222 32.7569 33.21 32.8039 33.19C32.8489 33.1717 32.8895 33.1489 32.9249 33.1255C32.9678 33.0977 33.0042 33.0667 33.0355 33.0354C33.1684 32.9024 33.2457 32.7189 33.2457 32.5296C33.2457 32.4792 33.2396 32.4324 33.2321 32.3922C33.2228 32.3423 33.2078 32.2969 33.1907 32.2559C33.172 32.2096 33.1486 32.168 33.1245 32.1319C33.0993 32.0941 33.0694 32.0569 33.0355 32.023C33.0042 31.9917 32.9678 31.9606 32.9249 31.9328C32.8896 31.9094 32.8489 31.8866 32.8039 31.8683C32.7569 31.8483 32.7114 31.8361 32.6736 31.8278Z" fill="#4A4881" stroke="#4A4881" stroke-width="0.5"/>
<path d="M1.32213 2.16734L1.32211 2.16745L1.32949 2.16883C1.3747 2.17731 1.42088 2.1815 1.46595 2.1815C1.65459 2.1815 1.83859 2.10625 1.97262 1.97222C2.10665 1.83819 2.18191 1.65418 2.18191 1.46555C2.18191 1.42166 2.17793 1.37403 2.1676 1.32541C2.1584 1.27786 2.14413 1.23351 2.12861 1.19471L2.12871 1.19467L2.12588 1.18815C2.10958 1.15053 2.08916 1.1103 2.06278 1.07045C2.03499 1.02754 2.0039 0.991085 1.97262 0.959809C1.80649 0.793673 1.56062 0.716083 1.32566 0.763945L1.32565 0.76392L1.32213 0.764689C1.28434 0.772958 1.23878 0.785142 1.19184 0.805138C1.14682 0.823451 1.10616 0.84625 1.07082 0.869678C1.02792 0.897463 0.991478 0.928545 0.960213 0.959809C0.92957 0.990452 0.899102 1.02607 0.871742 1.06787C0.843438 1.10885 0.822007 1.15086 0.805541 1.19144C0.787567 1.23353 0.773331 1.27878 0.764301 1.32541C0.753976 1.37403 0.75 1.42166 0.75 1.46555C0.75 1.65546 0.827084 1.83909 0.960213 1.97222C0.99149 2.0035 1.02795 2.03459 1.07086 2.06238C1.10619 2.08579 1.14683 2.10858 1.19184 2.12689C1.23878 2.14689 1.28434 2.15907 1.32213 2.16734Z" fill="#4A4881" stroke="#4A4881" stroke-width="0.5"/>
<path d="M1.97277 9.73938L1.97368 9.73847L9.73925 1.9729C10.0186 1.69355 10.0186 1.23984 9.73925 0.960491C9.45989 0.681138 9.00619 0.681139 8.72684 0.960491L0.960788 8.72561C0.960683 8.72571 0.960578 8.72582 0.960473 8.72592C0.680012 9.00529 0.680005 9.45921 0.960451 9.73858C1.10118 9.87925 1.28514 9.94775 1.46701 9.94775C1.65008 9.94775 1.83318 9.87753 1.97277 9.73938Z" fill="#4A4881" stroke="#4A4881" stroke-width="0.5"/>
<path d="M1.97277 17.5059L1.97368 17.505L17.5048 1.9729C17.7842 1.69355 17.7842 1.23984 17.5048 0.960491C17.2255 0.681139 16.7718 0.681138 16.4924 0.960491L0.960341 16.4916L0.960335 16.4916C0.680051 16.7719 0.680051 17.2247 0.960335 17.505C1.10108 17.6457 1.28509 17.7142 1.46701 17.7142C1.65008 17.7142 1.83318 17.644 1.97277 17.5059Z" fill="#4A4881" stroke="#4A4881" stroke-width="0.5"/>
<path d="M1.97293 25.2714L1.97384 25.2705L25.2715 1.9729C25.5508 1.69355 25.5508 1.23984 25.2715 0.960491C24.9921 0.681138 24.5384 0.681139 24.2591 0.960491L0.96233 24.2572C0.962174 24.2574 0.962017 24.2575 0.961861 24.2577C0.680054 24.5371 0.680138 24.9914 0.960738 25.2708C1.10145 25.4114 1.28535 25.4798 1.46716 25.4798C1.65024 25.4798 1.83334 25.4096 1.97293 25.2714Z" fill="#4A4881" stroke="#4A4881" stroke-width="0.5"/>
<path d="M1.97355 33.0356L1.97264 33.0365C1.83305 33.1747 1.64995 33.2449 1.46687 33.2449C1.28495 33.2449 1.10095 33.1764 0.960203 33.0356M1.97355 33.0356H0.9602C0.960201 33.0356 0.960202 33.0356 0.960203 33.0356M1.97355 33.0356L33.0354 1.97286C33.3161 1.69356 33.3162 1.2395 33.0358 0.960003C32.7565 0.68065 32.3028 0.68065 32.0234 0.960003L0.960201 32.0232C0.680848 32.3026 0.680848 32.7563 0.960202 33.0356H0.960203M1.97355 33.0356L0.960203 33.0356" fill="#4A4881" stroke="#4A4881" stroke-width="0.5"/>
<path d="M32.8588 8.90216L33.0351 8.72493C33.3159 9.00431 33.3159 9.45837 33.0365 9.73779L9.73885 33.0354L9.73794 33.0363C9.59835 33.1745 9.41525 33.2447 9.23218 33.2447C9.05026 33.2447 8.86625 33.1762 8.72551 33.0354C8.44615 32.7561 8.44615 32.3024 8.72551 32.023L32.0231 8.72538C32.3025 8.44603 32.7562 8.44603 33.0356 8.72538L32.8588 8.90216ZM32.8588 8.90216C33.0414 9.08388 33.0414 9.3793 32.8597 9.56102L9.56207 32.8587L32.8588 8.90216Z" fill="#4A4881" stroke="#4A4881" stroke-width="0.5"/>
<path d="M17.5035 33.0364L17.5044 33.0355L33.0356 17.5043C33.3158 17.2241 33.3158 16.7713 33.0356 16.491C32.7562 16.2117 32.3025 16.2117 32.0232 16.491L16.4911 32.0231C16.2117 32.3024 16.2117 32.7561 16.4911 33.0355C16.6318 33.1762 16.8158 33.2448 16.9978 33.2448C17.1808 33.2448 17.3639 33.1746 17.5035 33.0364Z" fill="#4A4881" stroke="#4A4881" stroke-width="0.5"/>
<path d="M32.8588 24.4341L33.0351 24.2569C33.3159 24.5363 33.3159 24.9903 33.0365 25.2698L25.2709 33.0353L25.27 33.0363C25.1304 33.1744 24.9473 33.2446 24.7643 33.2446C24.5823 33.2446 24.3983 33.1761 24.2576 33.0353C23.9782 32.756 23.9782 32.3023 24.2576 32.0229L32.0231 24.2574L32.1993 24.4335L32.0231 24.2574C32.3025 23.978 32.7562 23.978 33.0356 24.2574L32.8588 24.4341ZM32.8588 24.4341C33.0414 24.6159 33.0414 24.9113 32.8597 25.093L25.0941 32.8586L32.8588 24.4341Z" fill="#4A4881" stroke="#4A4881" stroke-width="0.5"/>
</svg>
