<svg width="34" height="37" viewBox="0 0 34 37" fill="none" xmlns="http://www.w3.org/2000/svg">
<g opacity="0.1" filter="url(#filter0_d)">
<path d="M13 2.3094C15.4752 0.880339 18.5248 0.880339 21 2.3094L27.7224 6.1906C30.1976 7.61966 31.7224 10.2607 31.7224 13.1188V20.8812C31.7224 23.7393 30.1976 26.3803 27.7224 27.8094L21 31.6906C18.5248 33.1197 15.4752 33.1197 13 31.6906L6.27757 27.8094C3.80236 26.3803 2.27757 23.7393 2.27757 20.8812V13.1188C2.27757 10.2607 3.80236 7.61966 6.27757 6.1906L13 2.3094Z" fill="#FF7455"/>
</g>
<path d="M11.037 20.8419C10.762 20.8419 10.4982 20.7327 10.3037 20.5382C10.1093 20.3437 10 20.0799 10 19.8049V12.2418C10 12.1392 10.0305 12.0389 10.0875 11.9536C10.1446 11.8683 10.2256 11.8019 10.3204 11.7627C10.4153 11.7235 10.5196 11.7133 10.6202 11.7334C10.7208 11.7535 10.8132 11.803 10.8856 11.8757L13.2335 14.2235C13.284 14.274 13.3444 14.3136 13.4109 14.3396C13.4774 14.3657 13.5485 14.3777 13.6199 14.375C13.6913 14.3723 13.7613 14.3548 13.8256 14.3238C13.8899 14.2927 13.9471 14.2487 13.9936 14.1945L16.3467 11.4495C16.3953 11.3925 16.4558 11.3468 16.5238 11.3155C16.5918 11.2842 16.6658 11.2679 16.7407 11.2679C16.8156 11.2679 16.8896 11.2842 16.9577 11.3155C17.0257 11.3468 17.0861 11.3925 17.1348 11.4495L19.5107 14.2215C19.5553 14.2735 19.6097 14.3162 19.671 14.3471C19.7322 14.378 19.7989 14.3964 19.8673 14.4013C19.9356 14.4062 20.0043 14.3976 20.0693 14.3758C20.1343 14.354 20.1943 14.3195 20.2459 14.2744L23.1403 11.7429C23.2151 11.6776 23.3072 11.6351 23.4054 11.6205C23.5037 11.6059 23.6041 11.6199 23.6947 11.6607C23.7853 11.7016 23.8622 11.7676 23.9163 11.851C23.9705 11.9343 23.9995 12.0314 24 12.1308V19.8049C24 20.0799 23.8907 20.3437 23.6963 20.5382C23.5018 20.7327 23.238 20.8419 22.963 20.8419H11.037Z" fill="#FF7455"/>
<defs>
<filter id="filter0_d" x="0.277588" y="1.23761" width="33.4449" height="35.5248" filterUnits="userSpaceOnUse" color-interpolation-filters="sRGB">
<feFlood flood-opacity="0" result="BackgroundImageFix"/>
<feColorMatrix in="SourceAlpha" type="matrix" values="0 0 0 0 0 0 0 0 0 0 0 0 0 0 0 0 0 0 127 0"/>
<feOffset dy="2"/>
<feGaussianBlur stdDeviation="1"/>
<feColorMatrix type="matrix" values="0 0 0 0 0 0 0 0 0 0 0 0 0 0 0 0 0 0 0.2 0"/>
<feBlend mode="normal" in2="BackgroundImageFix" result="effect1_dropShadow"/>
<feBlend mode="normal" in="SourceGraphic" in2="effect1_dropShadow" result="shape"/>
</filter>
</defs>
</svg>
