<svg width="7" height="14" viewBox="0 0 7 14" xmlns="http://www.w3.org/2000/svg"><path d="M6.1754005 4.5517973c-.0601811.623935-.1212605 1.2451959-.1688664 1.8669026-.0125751.1564294-.0826367.1818325-.2164723.1782671-.4908801-.004011-.9808619.004011-1.4712929-.0049023-.1589859-.0022284-.2021007.0525888-.2007534.2041158.0053894 1.0428628.0022456 2.0857255.0022456 3.1285883v3.1290339c0 .2085726-.0053893.2152576-.219167.2152576H1.6213985c-.2178196 0-.2245563-.0049024-.2245563-.2290733V6.8964558c0-.2674007 0-.2674007-.2613836-.2674007-.3184208 0-.6359434-.0049024-.9543643 0-.1347338.0031197-.179645-.0445668-.179645-.1782671.0049402-.6480011.0049402-1.2924368 0-1.9417748 0-.1337004.0552408-.1747018.183687-.1729192.3449185.0057937.6893879-.0031196 1.0356537.0049024.1347338.0022283.1796451-.0445668.1796451-.1755931-.0049403-.5512912-.0089823-1.103028 0-1.6534277.0103296-.621261.127548-1.2131079.5573487-1.7011142.3543499-.4011011.8209779-.5958579 1.3307207-.7037095.337879-.0698351.6824758-.1025658 1.0275697-.0976013.5598937.0041596 1.1202366.0041596 1.6810285 0 .1486563-.0022283.1971605.0485778.195364.1956482-.0058384.6520121-.0062875 1.3058068 0 1.9569275 0 .1577664-.056139.2032245-.20749.2001049-.4203694-.0071307-.841637-.0035654-1.2624556 0-.4329445.002674-.5973198.1617774-.6027091.5918469-.0049402.401101.004042.8022021-.0035929 1.2033031-.0022456.1372657.0404201.1880719.1841362.1862892.5600434-.006685 1.1227815-.0031197 1.6823758-.0022283.2034481.0004456.211083.017381.1926694.2103552z" fill="#D3CFFD" fill-rule="evenodd"/></svg>