<?xml version="1.0" encoding="UTF-8"?>
<svg width="389px" height="389px" viewBox="0 0 389 389" version="1.1" xmlns="http://www.w3.org/2000/svg" xmlns:xlink="http://www.w3.org/1999/xlink">
    <!-- Generator: Sketch 52.4 (67378) - http://www.bohemiancoding.com/sketch -->
    <title>Group</title>
    <desc>Created with Sketch.</desc>
    <defs>
        <linearGradient x1="6.37554687%" y1="4.89263055%" x2="82.9090698%" y2="89.5192777%" id="linearGradient-1">
            <stop stop-color="#F8821C" stop-opacity="0.5" offset="0%"></stop>
            <stop stop-color="#622C16" stop-opacity="0.25" offset="100%"></stop>
        </linearGradient>
        <linearGradient x1="17.2237625%" y1="6.95312497%" x2="77.7877391%" y2="91.0024512%" id="linearGradient-2">
            <stop stop-color="#F8821C" offset="0%"></stop>
            <stop stop-color="#622C16" offset="100%"></stop>
        </linearGradient>
    </defs>
    <g id="Page-1" stroke="none" stroke-width="1" fill="none" fill-rule="evenodd">
        <g id="Group">
            <polygon id="Path-2" fill="url(#linearGradient-1)" points="205.283692 201.916481 205.283692 37.4987205 292.061063 52.0206 373.195407 154.137253 367.093819 273.893311 253.843156 374.068166 113.249989 351.328375 30.2240909 240.041992 36.061316 205.783443"></polygon>
            <path d="M205.5,22 C306.844252,22 389,104.155748 389,205.5 C389,306.844252 306.844252,389 205.5,389 C104.155748,389 22,306.844252 22,205.5 C22,197.39246 28.5724599,190.82 36.68,190.82 L190.82,190.82 L190.82,36.68 C190.82,28.5724599 197.39246,22 205.5,22 Z M205.5,359.64 C287.939207,359.870622 355.966338,295.193823 359.895988,212.848004 C363.825638,130.502185 302.26654,59.6413615 220.18,52.0206 L220.18,205.5 C220.18,213.60754 213.60754,220.18 205.5,220.18 L52.0206,220.18 C59.5880263,299.27683 126.041998,359.66064 205.5,359.64 Z M161,146.363636 C161,154.447077 154.447077,161 146.363636,161 L14.6363636,161 C6.55292321,161 0,154.447077 0,146.363636 C6.49985116e-15,65.5292321 65.5292321,-6.49985116e-15 146.363636,0 C154.447077,0 161,6.55292321 161,14.6363636 L161,146.363636 Z M131.727273,131.727273 L131.727273,30.2240909 C78.6887183,36.9199082 36.9199082,78.6887183 30.2240909,131.727273 L131.727273,131.727273 Z" id="Combined-Shape" fill="url(#linearGradient-2)" fill-rule="nonzero"></path>
        </g>
    </g>
</svg>