<?xml version="1.0" encoding="UTF-8"?>
<svg width="41px" height="46px" viewBox="0 0 41 46" version="1.1" xmlns="http://www.w3.org/2000/svg" xmlns:xlink="http://www.w3.org/1999/xlink">
    <!-- Generator: Sketch 48.2 (47327) - http://www.bohemiancoding.com/sketch -->
    <title>club</title>
    <desc>Created with Sketch.</desc>
    <defs>
        <linearGradient x1="76.9355705%" y1="32.4671552%" x2="39.6273806%" y2="75.0205293%" id="linearGradient-1">
            <stop stop-color="#A40303" offset="0%"></stop>
            <stop stop-color="#E5481A" offset="100%"></stop>
        </linearGradient>
        <linearGradient x1="17.6297037%" y1="41.2180648%" x2="100%" y2="82.4105968%" id="linearGradient-2">
            <stop stop-color="#FF3737" offset="0%"></stop>
            <stop stop-color="#FB8D41" offset="100%"></stop>
        </linearGradient>
        <linearGradient x1="71.131638%" y1="50%" x2="23.6514423%" y2="-100.444631%" id="linearGradient-3">
            <stop stop-color="#FB6541" offset="0%"></stop>
            <stop stop-color="#FB8D41" offset="100%"></stop>
        </linearGradient>
    </defs>
    <g id="Page-1" stroke="none" stroke-width="1" fill="none" fill-rule="evenodd">
        <g id="club">
            <g id="Shape">
                <polygon fill="url(#linearGradient-1)" fill-rule="nonzero" points="17.4536825 33.414934 8.26831668 38.69219 10.895146 40.202058 20.8902679 45.9453826 30.8841703 40.202058 40.8792923 34.4587335 40.8792923 22.9720844 40.8792923 11.4866491 30.8841703 5.74332454 28.3573411 4.29171504 28.3573411 14.6192612 28.3573411 27.1497098"></polygon>
                <polygon fill="url(#linearGradient-2)" fill-rule="nonzero" points="13.5207557 14.7903958 13.5207557 4.23345646 10.895146 5.74332454 0.900024 11.4866491 0.900024 22.9720844 0.900024 34.4587335 10.895146 40.202058 20.8902679 45.9453826 30.8841703 40.202058 33.4109996 38.7492348 24.4244142 33.5860686 13.5219752 27.3208443"></polygon>
                <polygon fill="url(#linearGradient-3)" fill-rule="nonzero" points="40.8792923 25.9906069 40.8792923 22.9720844 40.8792923 11.4866491 30.8841703 5.74332454 20.8902679 0 10.895146 5.74332454 0.900024 11.4866491 0.900024 22.9720844 0.900024 25.8765172 9.88660937 20.7121372 20.7902679 14.4469129 31.6939264 20.7121372"></polygon>
            </g>
        </g>
    </g>
</svg>