<?xml version="1.0" encoding="UTF-8"?>
<svg width="89px" height="48px" viewBox="0 0 89 48" version="1.1" xmlns="http://www.w3.org/2000/svg" xmlns:xlink="http://www.w3.org/1999/xlink">
    <!-- Generator: Sketch 49 (51002) - http://www.bohemiancoding.com/sketch -->
    <title>Combined Shape</title>
    <desc>Created with Sketch.</desc>
    <defs>
        <linearGradient x1="100%" y1="0%" x2="4.16334495%" y2="186.727126%" id="linearGradient-1">
            <stop stop-color="#F99019" offset="0%"></stop>
            <stop stop-color="#FF2758" offset="100%"></stop>
        </linearGradient>
    </defs>
    <g id="Page-1" stroke="none" stroke-width="1" fill="none" fill-rule="evenodd">
        <g id="c_skin" transform="translate(-1018.000000, -368.000000)" fill-rule="nonzero" stroke="url(#linearGradient-1)" stroke-width="2">
            <g id="Group" transform="translate(881.000000, 243.000000)">
                <g id="Group-16" transform="translate(0.000000, 0.500000)">
                    <g id="icon" transform="translate(179.482369, 141.333883) rotate(41.000000) translate(-179.482369, -141.333883) translate(145.982369, 107.333883)">
                        <path d="M31.1123703,45.8822514 C32.7047549,49.5979653 34.8945534,54.6380182 35.7313793,56.2361789 C37.107633,58.8616476 35.7790188,59.2824636 35.7790188,59.2824636 C35.7790188,59.2824636 31.8408158,62.603999 30.8562651,63.4297513 C29.874361,64.2634434 29.0565487,63.1333274 29.0565487,63.1333274 C29.0565487,63.1333274 23.6441663,49.7254402 22.9851525,46.9544062 C22.3261387,44.1833723 21.3865808,45.7343044 21.3865808,45.7343044 C21.3865808,45.7343044 12.009529,64.7424856 10.4453638,67.0450639 C8.88119847,69.3529355 6.70565894,66.2748912 6.70565894,66.2748912 L0.541630251,58.9780998 C-0.839916754,57.3371819 0.962446293,55.8100696 0.962446293,55.8100696 C0.962446293,55.8100696 7.10530185,50.7655704 9.23320183,48.965854 C11.3637485,47.1608443 12.4647514,44.9747182 12.3271261,42.9844436 C12.1921473,40.9888757 13.2693305,39.9381589 13.2693305,39.9381589 C13.2693305,39.9381589 17.1254876,36.6801429 17.861254,36.0608287 C18.5996671,35.4362212 17.8506674,34.3881511 17.4430846,32.9033851 C17.0328551,31.4239123 17.5542436,30.7066724 17.5542436,30.7066724 C17.5542436,30.7066724 29.5250043,20.5912075 31.4914591,18.9317631 C33.457914,17.2723188 36.1124957,20.0804057 36.1124957,20.0804057 C36.1124957,20.0804057 43.3965812,14.0403437 45.7672848,12.070805 C45.8986497,10.2165988 46.1620431,6.57197271 46.4052855,3.64740691 C46.7096493,0.0823804437 49.2027859,0.976945363 50.0602978,1.9932558 C50.7273913,2.77976733 53.833914,6.46059819 55.1806831,8.05653959 L64.2013048,0.442323725 L66.9749854,3.72415952 L52.3761094,16.0522169 C52.3761094,16.0522169 52.7916321,16.5444923 53.620031,17.5263964 C54.4510765,18.5109471 53.0721761,19.5404908 53.0721761,19.5404908 C53.0721761,19.5404908 45.0343251,26.321187 43.8856826,27.2898579 C42.73704,28.263822 43.9756684,29.2351396 43.9756684,29.2351396 C43.9756684,29.2351396 51.6959224,34.8830731 55.1127369,35.9311432 C58.5295515,36.9845067 61.2397126,36.3757791 62.8356376,36.4313585 C64.4368559,36.4842914 64.2833507,38.3051809 64.2833507,38.3051809 C64.2833507,38.3051809 64.4183294,42.1269316 64.1854249,44.8423861 C63.9604604,47.5710738 62.3618888,47.5128476 62.3618888,47.5128476 C62.3618888,47.5128476 55.8326235,47.2640633 48.374387,45.4140607 C42.810816,44.0384633 38.7027652,40.9615703 36.2730173,38.9324978 C36.2870637,40.2819731 35.9051903,41.8844898 34.4186449,43.1379488 C32.9516677,44.3795184 31.8616268,45.276124 31.1123703,45.8822514 Z M29.9302567,43.1116434 C30.423633,42.6953798 31.1916174,42.0474517 31.8566957,41.4864443 C32.8082656,40.6837753 33.7332477,39.0016625 33.3299733,36.7619272 C32.4274777,36.5374814 32.076367,37.2624041 32.076367,37.2624041 C32.076367,37.2624041 30.6974666,38.2919477 29.63087,39.1891593 C28.5616267,40.0890175 29.3000397,41.6240697 29.3000397,41.6240697 C29.3000397,41.6240697 29.5402684,42.1936217 29.9302567,43.1116434 Z M49.8539331,12.5527956 L52.0644524,10.6869185 C51.5810663,10.1176282 50.918514,9.33777106 50.4784672,8.82159157 C49.7135877,7.91114681 49.0439874,8.60456695 49.4303971,10.0178737 C49.6150747,10.7008625 49.7643184,11.7918203 49.8539331,12.5527956 Z" id="Combined-Shape"></path>
                    </g>
                </g>
            </g>
        </g>
    </g>
</svg>